<svg id="Layer_1" xmlns="http://www.w3.org/2000/svg" viewBox="0 0 250.5 200.4"><style>.st0{fill:url(#SVGID_1_)}.st1{fill:url(#SVGID_2_)}.st2{fill:url(#SVGID_3_)}.st3{fill:url(#SVGID_4_)}</style><linearGradient id="SVGID_1_" gradientUnits="userSpaceOnUse" x1="10.569" y1="213.894" x2="237.864" y2="35.867"><stop offset=".005" stop-color="#ee743a"/><stop offset=".5" stop-color="#f39339"/><stop offset="1" stop-color="#ee743a"/></linearGradient><path class="st0" d="M175.2 83.6c20.1-12.4 44.8-23 75.3-31.6-32.7 0-61.3 4.2-86.7 11.8C86.9 86.7 39.7 140.4 0 200.4h93.7c11-46 32.6-86.6 81.5-116.8"/><linearGradient id="SVGID_2_" gradientUnits="userSpaceOnUse" x1="45.632" y1="199.419" x2="244.169" y2="43.917"><stop offset=".005" stop-color="#ec6825"/><stop offset=".5" stop-color="#f18833"/><stop offset="1" stop-color="#ec6825"/></linearGradient><path class="st1" d="M175.2 83.6c20.1-12.4 44.8-23 75.3-31.6-49 7.8-157.9 30.9-204.1 148.4h47.3c11-46 32.6-86.6 81.5-116.8z"/><linearGradient id="SVGID_3_" gradientUnits="userSpaceOnUse" x1="33.929" y1="110.612" x2="141.652" y2="26.24"><stop offset=".005" stop-color="#1b461f"/><stop offset="1" stop-color="#217431"/></linearGradient><path class="st2" d="M121.1 0L62.8 100.2 47 127.3c29.6-30.6 64.1-54.8 107.9-69.1L121.1 0z"/><linearGradient id="SVGID_4_" gradientUnits="userSpaceOnUse" x1="117.257" y1="216.201" x2="208.447" y2="144.777"><stop offset=".005" stop-color="#1b461f"/><stop offset="1" stop-color="#217431"/></linearGradient><path class="st3" d="M175.3 93.1c-40.1 26.2-61.9 60.9-73.3 107.3h135.7l-58.3-100.2-4.1-7.1z"/></svg>